<svg width="70" height="70" viewBox="0 0 70 70" fill="none" xmlns="http://www.w3.org/2000/svg">
<rect width="70" height="70" rx="10" fill="#3356B7"/>
<mask id="mask0_6_49" style="mask-type:alpha" maskUnits="userSpaceOnUse" x="0" y="0" width="70" height="70">
<rect width="70" height="70" rx="10" fill="#3356B7"/>
</mask>
<g mask="url(#mask0_6_49)">
<path d="M27.5 51.5C23.723 47.6324 34.5286 55.7384 38.4507 52.0138L41.4084 39.375L52.7465 39.8611C56.6686 36.1365 48.9695 21.6324 52.7465 25.5L73.4507 50.5555C77.2277 54.4231 79.9787 62.7935 76.0566 66.5181L64.5978 77.3998C60.6758 81.1244 54.4344 81.0084 50.6574 77.1408L27.5 51.5Z" fill="#284BAA"/>
</g>
<path d="M36.9718 28.3768C37.4452 28.3768 37.914 28.2849 38.3513 28.1062C38.7886 27.9276 39.186 27.6658 39.5208 27.3357C39.8555 27.0056 40.121 26.6137 40.3022 26.1825C40.4833 25.7512 40.5766 25.289 40.5766 24.8221C40.5766 24.3553 40.4833 23.8931 40.3022 23.4618C40.121 23.0305 39.8555 22.6387 39.5208 22.3086C39.186 21.9785 38.7886 21.7167 38.3513 21.538C37.914 21.3594 37.4452 21.2675 36.9718 21.2675C36.0158 21.2675 35.0989 21.642 34.4229 22.3086C33.7469 22.9752 33.3671 23.8794 33.3671 24.8221C33.3671 25.7649 33.7469 26.6691 34.4229 27.3357C35.0989 28.0023 36.0158 28.3768 36.9718 28.3768ZM46.5845 35.4862C47.5405 35.4862 48.4574 35.1117 49.1334 34.4451C49.8095 33.7784 50.1893 32.8743 50.1893 31.9315C50.1893 30.9888 49.8095 30.0846 49.1334 29.418C48.4574 28.7513 47.5405 28.3768 46.5845 28.3768C45.6285 28.3768 44.7116 28.7513 44.0356 29.418C43.3595 30.0846 42.9797 30.9888 42.9797 31.9315C42.9797 32.8743 43.3595 33.7784 44.0356 34.4451C44.7116 35.1117 45.6285 35.4862 46.5845 35.4862ZM30.9639 33.1164C30.9639 34.0592 30.5841 34.9633 29.9081 35.63C29.2321 36.2966 28.3152 36.6711 27.3591 36.6711C26.4031 36.6711 25.4862 36.2966 24.8102 35.63C24.1342 34.9633 23.7544 34.0592 23.7544 33.1164C23.7544 32.1737 24.1342 31.2695 24.8102 30.6029C25.4862 29.9362 26.4031 29.5617 27.3591 29.5617C28.3152 29.5617 29.2321 29.9362 29.9081 30.6029C30.5841 31.2695 30.9639 32.1737 30.9639 33.1164ZM32.1655 47.3352C33.1215 47.3352 34.0384 46.9606 34.7144 46.294C35.3905 45.6274 35.7702 44.7232 35.7702 43.7805C35.7702 42.8377 35.3905 41.9336 34.7144 41.2669C34.0384 40.6003 33.1215 40.2258 32.1655 40.2258C31.2094 40.2258 30.2926 40.6003 29.6165 41.2669C28.9405 41.9336 28.5607 42.8377 28.5607 43.7805C28.5607 44.7232 28.9405 45.6274 29.6165 46.294C30.2926 46.9606 31.2094 47.3352 32.1655 47.3352Z" fill="white"/>
<path d="M56.1972 35.4862C56.1972 42.951 51.7129 41.6121 47.6251 40.3916C45.1907 39.6641 42.8956 38.9769 41.7782 40.2258C40.329 41.8443 40.6367 44.5364 40.9346 47.1455C41.36 50.878 41.7685 54.4445 36.9718 54.4445C33.1694 54.4445 29.4524 53.3326 26.2908 51.2495C23.1292 49.1663 20.665 46.2054 19.2099 42.7412C17.7548 39.277 17.3741 35.4651 18.1159 31.7876C18.8577 28.11 20.6887 24.732 23.3774 22.0806C26.0662 19.4292 29.4918 17.6236 33.2211 16.8921C36.9505 16.1606 40.8161 16.536 44.329 17.971C47.842 19.4059 50.8446 21.8358 52.9571 24.9535C55.0696 28.0712 56.1972 31.7366 56.1972 35.4862ZM36.9718 52.0747C38.4402 52.0747 38.5435 51.6695 38.5459 51.6576C38.7333 51.3116 38.8439 50.558 38.7141 49.0058C38.6805 48.6077 38.6252 48.129 38.5675 47.6053C38.4426 46.5057 38.2984 45.2236 38.2839 44.1407C38.2599 42.4652 38.4834 40.3253 39.9758 38.657C40.8625 37.6688 42.0065 37.2872 43.0326 37.1924C44.0035 37.1024 44.984 37.254 45.8203 37.4389C46.6446 37.6214 47.5073 37.8797 48.2835 38.1119L48.3508 38.1309C49.1823 38.3797 49.9321 38.6024 50.641 38.7612C52.2103 39.112 52.8135 38.9579 53.0226 38.8181C53.1139 38.7565 53.794 38.2375 53.794 35.4862C53.794 32.2053 52.8074 28.998 50.959 26.2701C49.1105 23.5421 46.4832 21.4159 43.4094 20.1604C40.3355 18.9048 36.9532 18.5763 33.69 19.2164C30.4268 19.8564 27.4294 21.4364 25.0767 23.7563C22.7241 26.0763 21.122 29.032 20.4729 32.2499C19.8238 35.4678 20.1569 38.8032 21.4301 41.8343C22.7034 44.8655 24.8595 47.4563 27.6259 49.279C30.3923 51.1018 33.6447 52.0747 36.9718 52.0747Z" fill="white"/>
</svg>
