<svg width="70" height="70" viewBox="0 0 70 70" fill="none" xmlns="http://www.w3.org/2000/svg">
<rect width="70" height="70" rx="10" fill="#3356B7"/>
<mask id="mask0_8_72" style="mask-type:alpha" maskUnits="userSpaceOnUse" x="0" y="0" width="70" height="70">
<rect width="70" height="70" rx="10" fill="#3356B7"/>
</mask>
<g mask="url(#mask0_8_72)">
<path d="M20.7042 50.5555C16.9272 46.6879 35 52.0138 39.9296 52.0138L52.7466 50.0694L52.7466 39.8611C56.6686 36.1366 50.4484 29.1879 54.2254 33.0556L73.4507 50.5555C77.2278 54.4232 79.9788 62.7935 76.0567 66.5181L64.5979 77.3998C60.6758 81.1244 54.4344 81.0084 50.6574 77.1408L20.7042 50.5555Z" fill="#284BAA"/>
</g>
<path fill-rule="evenodd" clip-rule="evenodd" d="M56.2009 20.1011C56.4359 20.3336 56.5679 20.6485 56.5679 20.9768C56.5679 21.3051 56.4359 21.62 56.2009 21.8525L53.577 24.4424L48.5456 19.4809L51.1695 16.891C51.4053 16.6585 51.7252 16.5278 52.0588 16.5278C52.3923 16.5278 52.7122 16.6585 52.9481 16.891L56.2009 20.0986V20.1011Z" fill="white"/>
<path d="M51.7984 26.1938L46.767 21.2323L29.6275 38.1362C29.4891 38.2727 29.3848 38.4392 29.3231 38.6224L28.3105 41.6167L32.0422 44.0962L34.1658 43.3979C34.3514 43.3378 34.5202 43.2359 34.6589 43.1002L51.7984 26.1963V26.1938Z" fill="white"/>
<path fill-rule="evenodd" clip-rule="evenodd" d="M27.2829 44.9492C27.256 44.8373 27.2613 44.7202 27.298 44.611L28.3105 41.6167L31.5493 44.2583L28.0929 45.3949C27.9822 45.4311 27.8635 45.4363 27.75 45.4098C27.6365 45.3833 27.5327 45.3262 27.4502 45.2448C27.3677 45.1635 27.3098 45.0611 27.2829 44.9492Z" fill="white"/>
<path d="M32.0422 44.0962L28.3105 41.6167L31.5493 44.2583L32.0422 44.0962Z" fill="white"/>
<path fill-rule="evenodd" clip-rule="evenodd" d="M19.7183 48.7789C19.7183 49.7658 20.1158 50.7123 20.8235 51.4101C21.5312 52.108 22.491 52.5 23.4918 52.5H51.1645C52.1653 52.5 53.1251 52.108 53.8328 51.4101C54.5405 50.7123 54.9381 49.7658 54.9381 48.7789V33.8943C54.9381 33.5654 54.8055 33.2499 54.5696 33.0173C54.3337 32.7846 54.0138 32.654 53.6802 32.654C53.3466 32.654 53.0267 32.7846 52.7908 33.0173C52.5549 33.2499 52.4224 33.5654 52.4224 33.8943V48.7789C52.4224 49.1079 52.2898 49.4234 52.0539 49.656C51.818 49.8886 51.4981 50.0193 51.1645 50.0193H23.4918C23.1582 50.0193 22.8383 49.8886 22.6024 49.656C22.3665 49.4234 22.234 49.1079 22.234 48.7789V21.4905C22.234 21.1616 22.3665 20.8461 22.6024 20.6135C22.8383 20.3809 23.1582 20.2502 23.4918 20.2502H39.8439C40.1775 20.2502 40.4974 20.1195 40.7333 19.8869C40.9692 19.6543 41.1017 19.3388 41.1017 19.0098C41.1017 18.6808 40.9692 18.3653 40.7333 18.1327C40.4974 17.9001 40.1775 17.7694 39.8439 17.7694H23.4918C22.491 17.7694 21.5312 18.1615 20.8235 18.8593C20.1158 19.5572 19.7183 20.5036 19.7183 21.4905V48.7789Z" fill="white"/>
</svg>
