<svg width="70" height="70" viewBox="0 0 70 70" fill="none" xmlns="http://www.w3.org/2000/svg">
<rect width="70" height="70" rx="10" fill="#3356B7"/>
<mask id="mask0_8_91" style="mask-type:alpha" maskUnits="userSpaceOnUse" x="0" y="0" width="70" height="70">
<rect width="70" height="70" rx="10" fill="#3356B7"/>
</mask>
<g mask="url(#mask0_8_91)">
<path d="M20.7042 50.5555C16.9272 46.6879 35 52.0138 39.9296 52.0138L52.7466 50.0694L52.7466 39.8611C56.6686 36.1366 50.4484 29.1879 54.2254 33.0556L73.4507 50.5555C77.2278 54.4232 79.9788 62.7935 76.0567 66.5181L64.5979 77.3998C60.6758 81.1244 54.4344 81.0084 50.6574 77.1408L20.7042 50.5555Z" fill="#284BAA"/>
</g>
<path d="M24.1549 19.6875C23.5665 19.6875 23.0023 19.918 22.5863 20.3282C22.1703 20.7384 21.9366 21.2948 21.9366 21.875V48.125C21.9366 48.7052 22.1703 49.2616 22.5863 49.6718C23.0023 50.082 23.5665 50.3125 24.1549 50.3125H50.7746C51.3629 50.3125 51.9272 50.082 52.3432 49.6718C52.7592 49.2616 52.9929 48.7052 52.9929 48.125V21.875C52.9929 21.2948 52.7592 20.7384 52.3432 20.3282C51.9272 19.918 51.3629 19.6875 50.7746 19.6875H40.7922C40.2039 19.6875 39.6396 19.918 39.2236 20.3282C38.8076 20.7384 38.5739 21.2948 38.5739 21.875V31.7188H43.0105C43.2302 31.7184 43.445 31.7823 43.6278 31.9025C43.8105 32.0226 43.953 32.1936 44.0371 32.3937C44.1212 32.5938 44.1432 32.814 44.1002 33.0264C44.0573 33.2388 43.9513 33.4339 43.7958 33.5869L38.25 39.0556C38.147 39.1575 38.0246 39.2383 37.8898 39.2934C37.7551 39.3486 37.6106 39.377 37.4647 39.377C37.3188 39.377 37.1744 39.3486 37.0396 39.2934C36.9049 39.2383 36.7825 39.1575 36.6795 39.0556L31.1337 33.5869C30.9782 33.4339 30.8722 33.2388 30.8292 33.0264C30.7863 32.814 30.8083 32.5938 30.8924 32.3937C30.9765 32.1936 31.1189 32.0226 31.3017 31.9025C31.4845 31.7823 31.6993 31.7184 31.919 31.7188H36.3556V21.875C36.3556 20.7147 36.823 19.6019 37.655 18.7814C38.4871 17.9609 39.6155 17.5 40.7922 17.5H50.7746C51.9513 17.5 53.0797 17.9609 53.9118 18.7814C54.7438 19.6019 55.2112 20.7147 55.2112 21.875V48.125C55.2112 49.2853 54.7438 50.3981 53.9118 51.2186C53.0797 52.0391 51.9513 52.5 50.7746 52.5H24.1549C22.9782 52.5 21.8497 52.0391 21.0177 51.2186C20.1857 50.3981 19.7183 49.2853 19.7183 48.125V21.875C19.7183 20.7147 20.1857 19.6019 21.0177 18.7814C21.8497 17.9609 22.9782 17.5 24.1549 17.5H29.7007C29.9948 17.5 30.2769 17.6152 30.4849 17.8204C30.693 18.0255 30.8098 18.3037 30.8098 18.5938C30.8098 18.8838 30.693 19.162 30.4849 19.3671C30.2769 19.5723 29.9948 19.6875 29.7007 19.6875H24.1549Z" fill="white"/>
</svg>
