<svg width="70" height="70" viewBox="0 0 70 70" fill="none" xmlns="http://www.w3.org/2000/svg">
<rect width="70" height="70" rx="10" fill="#3356B7"/>
<mask id="mask0_9_142" style="mask-type:alpha" maskUnits="userSpaceOnUse" x="0" y="0" width="70" height="70">
<rect width="70" height="70" rx="10" fill="#3356B7"/>
</mask>
<g mask="url(#mask0_9_142)">
<path d="M28.5 50.0694C24.723 46.2018 35 52.0139 39.9296 52.0139L52.7465 50.0694L52.7465 39.8612C56.6686 36.1366 50.223 24.6324 54 28.5L73.4507 50.5556C77.2277 54.4232 79.9787 62.7936 76.0566 66.5181L64.5978 77.3999C60.6758 81.1244 54.4344 81.0085 50.6574 77.1409L28.5 50.0694Z" fill="#284BAA"/>
</g>
<path d="M21.5 19.5714C20.9033 19.5714 20.331 19.8423 19.909 20.3246C19.4871 20.8068 19.25 21.4609 19.25 22.1429V47.8571C19.25 48.5391 19.4871 49.1932 19.909 49.6754C20.331 50.1577 20.9033 50.4286 21.5 50.4286H48.5C49.0967 50.4286 49.669 50.1577 50.091 49.6754C50.5129 49.1932 50.75 48.5391 50.75 47.8571V22.1429C50.75 21.4609 50.5129 20.8068 50.091 20.3246C49.669 19.8423 49.0967 19.5714 48.5 19.5714H21.5ZM48.5 17C49.6935 17 50.8381 17.5418 51.682 18.5063C52.5259 19.4708 53 20.7789 53 22.1429V47.8571C53 49.2211 52.5259 50.5292 51.682 51.4937C50.8381 52.4582 49.6935 53 48.5 53H21.5C20.3065 53 19.1619 52.4582 18.318 51.4937C17.4741 50.5292 17 49.2211 17 47.8571V22.1429C17 20.7789 17.4741 19.4708 18.318 18.5063C19.1619 17.5418 20.3065 17 21.5 17H48.5Z" fill="white"/>
<path d="M46 24.6C46 23.9104 45.7629 23.2491 45.341 22.7615C44.919 22.2739 44.3467 22 43.75 22H39.25C38.6533 22 38.081 22.2739 37.659 22.7615C37.2371 23.2491 37 23.9104 37 24.6V45.4C37 46.0896 37.2371 46.7509 37.659 47.2385C38.081 47.7261 38.6533 48 39.25 48H43.75C44.3467 48 44.919 47.7261 45.341 47.2385C45.7629 46.7509 46 46.0896 46 45.4V24.6Z" fill="white"/>
<path fill-rule="evenodd" clip-rule="evenodd" d="M28.1551 22.062C28.0458 22.103 27.9465 22.163 27.863 22.2387L24.2639 25.4883C24.0949 25.6409 24 25.8478 24 26.0635C24 26.2792 24.0949 26.4861 24.2639 26.6387C24.4328 26.7912 24.662 26.8769 24.9009 26.8769C25.1398 26.8769 25.369 26.7912 25.5379 26.6387L27.6002 24.775V30.938C27.6002 31.1534 27.695 31.3601 27.8638 31.5124C28.0325 31.6648 28.2614 31.7504 28.5 31.7504C28.7386 31.7504 28.9675 31.6648 29.1362 31.5124C29.305 31.3601 29.3998 31.1534 29.3998 30.938V24.775L31.4621 26.6387C31.5457 26.7142 31.645 26.7741 31.7543 26.815C31.8636 26.8559 31.9808 26.8769 32.0991 26.8769C32.2174 26.8769 32.3346 26.8559 32.4439 26.815C32.5532 26.7741 32.6525 26.7142 32.7361 26.6387C32.8198 26.5631 32.8861 26.4735 32.9314 26.3748C32.9767 26.2761 33 26.1703 33 26.0635C33 25.9567 32.9767 25.8509 32.9314 25.7522C32.8861 25.6535 32.8198 25.5638 32.7361 25.4883L29.137 22.2387C29.0535 22.163 28.9542 22.103 28.8449 22.062C28.7355 22.0211 28.6184 22 28.5 22C28.3816 22 28.2645 22.0211 28.1551 22.062ZM29.1362 38.4876C28.9675 38.3352 28.7386 38.2496 28.5 38.2496C28.2614 38.2496 28.0325 38.3352 27.8638 38.4876C27.695 38.6399 27.6002 38.8466 27.6002 39.062V45.225L25.5379 43.3613C25.4543 43.2858 25.355 43.2259 25.2457 43.185C25.1364 43.1441 25.0192 43.1231 24.9009 43.1231C24.662 43.1231 24.4328 43.2088 24.2639 43.3613C24.1802 43.4368 24.1139 43.5265 24.0686 43.6252C24.0233 43.7239 24 43.8297 24 43.9365C24 44.0433 24.0233 44.1491 24.0686 44.2478C24.1139 44.3465 24.1802 44.4361 24.2639 44.5117L27.863 47.7613C27.9465 47.837 28.0458 47.897 28.1551 47.938C28.2645 47.9789 28.3816 48 28.5 48C28.6184 48 28.7355 47.9789 28.8449 47.938C28.9542 47.897 29.0535 47.837 29.137 47.7613L32.7361 44.5117C32.9051 44.3591 33 44.1522 33 43.9365C33 43.7208 32.9051 43.5139 32.7361 43.3613C32.5672 43.2088 32.338 43.1231 32.0991 43.1231C31.8602 43.1231 31.631 43.2088 31.4621 43.3613L29.3998 45.225V39.062C29.3998 38.8466 29.305 38.6399 29.1362 38.4876Z" fill="white"/>
</svg>
