<svg width="70" height="70" viewBox="0 0 70 70" fill="none" xmlns="http://www.w3.org/2000/svg">
<rect width="70" height="70" rx="10" fill="#3356B7"/>
<mask id="mask0_9_106" style="mask-type:alpha" maskUnits="userSpaceOnUse" x="0" y="0" width="70" height="70">
<rect width="70" height="70" rx="10" fill="#3356B7"/>
</mask>
<g mask="url(#mask0_9_106)">
<path d="M28.5 50.0694C24.723 46.2018 35 52.0139 39.9296 52.0139L52.7465 50.0694L52.7465 39.8612C56.6686 36.1366 50.223 24.6324 54 28.5L73.4507 50.5556C77.2277 54.4232 79.9787 62.7936 76.0566 66.5181L64.5978 77.3999C60.6758 81.1244 54.4344 81.0085 50.6574 77.1409L28.5 50.0694Z" fill="#284BAA"/>
</g>
<path d="M19 21.5C19 20.3065 19.4741 19.1619 20.318 18.318C21.1619 17.4741 22.3065 17 23.5 17H41.5C42.6935 17 43.8381 17.4741 44.682 18.318C45.5259 19.1619 46 20.3065 46 21.5V26H50.5C51.6935 26 52.8381 26.4741 53.682 27.318C54.5259 28.1619 55 29.3065 55 30.5V48.5C55 49.6935 54.5259 50.8381 53.682 51.682C52.8381 52.5259 51.6935 53 50.5 53H32.5C31.3065 53 30.1619 52.5259 29.318 51.682C28.4741 50.8381 28 49.6935 28 48.5V44H23.5C22.3065 44 21.1619 43.5259 20.318 42.682C19.4741 41.8381 19 40.6935 19 39.5V21.5ZM30.25 44V48.5C30.25 49.0967 30.4871 49.669 30.909 50.091C31.331 50.5129 31.9033 50.75 32.5 50.75H50.5C51.0967 50.75 51.669 50.5129 52.091 50.091C52.5129 49.669 52.75 49.0967 52.75 48.5V30.5C52.75 29.9033 52.5129 29.331 52.091 28.909C51.669 28.4871 51.0967 28.25 50.5 28.25H46V39.5C46 40.6935 45.5259 41.8381 44.682 42.682C43.8381 43.5259 42.6935 44 41.5 44H30.25Z" fill="white"/>
</svg>
