<svg width="70" height="70" viewBox="0 0 70 70" fill="none" xmlns="http://www.w3.org/2000/svg">
<rect width="70" height="70" rx="10" fill="#3356B7"/>
<mask id="mask0_9_121" style="mask-type:alpha" maskUnits="userSpaceOnUse" x="0" y="0" width="70" height="70">
<rect width="70" height="70" rx="10" fill="#3356B7"/>
</mask>
<g mask="url(#mask0_9_121)">
<path d="M19 41.0001C19.5 37.5 34.0704 49.0001 39 49.0001L43.5 45.5L46 39C47 35 47.5 38.5 51.5 37.5L71 59.5C74.777 63.3676 78.9221 63.2754 75 67L64.5979 77.3999C60.6758 81.1244 54.4344 81.0085 50.6574 77.1409L19 41.0001Z" fill="#284BAA"/>
</g>
<path d="M37.5299 17.1625C37.3671 17.0558 37.1855 17 37.0011 17C36.8167 17 36.6351 17.0558 36.4724 17.1625L19.5971 28.24C19.4174 28.3581 19.2671 28.5342 19.1624 28.7493C19.0576 28.9644 19.0023 29.2105 19.0023 29.4613C19.0023 29.712 19.0576 29.9581 19.1624 30.1732C19.2671 30.3883 19.4174 30.5644 19.5971 30.6825L26.174 35L19.5949 39.3175C19.4151 39.4356 19.2649 39.6117 19.1601 39.8268C19.0553 40.0419 19 40.288 19 40.5387C19 40.7895 19.0553 41.0356 19.1601 41.2507C19.2649 41.4658 19.4151 41.6419 19.5949 41.76L36.4701 52.8375C36.6329 52.9442 36.8145 53 36.9989 53C37.1833 53 37.3649 52.9442 37.5276 52.8375L54.4029 41.76C54.5826 41.6419 54.7329 41.4658 54.8376 41.2507C54.9424 41.0356 54.9977 40.7895 54.9977 40.5387C54.9977 40.288 54.9424 40.0419 54.8376 39.8268C54.7329 39.6117 54.5826 39.4356 54.4029 39.3175L47.8305 35L54.4051 30.6825C54.5849 30.5644 54.7351 30.3883 54.8399 30.1732C54.9447 29.9581 55 29.712 55 29.4613C55 29.2105 54.9447 28.9644 54.8399 28.7493C54.7351 28.5342 54.5849 28.3581 54.4051 28.24L37.5299 17.1625ZM37.0011 38.9685L22.5154 29.4613L37.0011 19.954L51.4869 29.4613L37.0011 38.9685Z" fill="white"/>
</svg>
