<svg width="30" height="30" viewBox="0 0 30 30" fill="none" xmlns="http://www.w3.org/2000/svg">
<path d="M11.25 1.875V7.5H1.875V1.875H11.25ZM1.875 0C1.37772 0 0.900806 0.197544 0.549175 0.549175C0.197544 0.900806 0 1.37772 0 1.875L0 7.5C0 7.99728 0.197544 8.47419 0.549175 8.82582C0.900806 9.17746 1.37772 9.375 1.875 9.375H11.25C11.7473 9.375 12.2242 9.17746 12.5758 8.82582C12.9275 8.47419 13.125 7.99728 13.125 7.5V1.875C13.125 1.37772 12.9275 0.900806 12.5758 0.549175C12.2242 0.197544 11.7473 0 11.25 0L1.875 0ZM28.125 22.5V28.125H18.75V22.5H28.125ZM18.75 20.625C18.2527 20.625 17.7758 20.8225 17.4242 21.1742C17.0725 21.5258 16.875 22.0027 16.875 22.5V28.125C16.875 28.6223 17.0725 29.0992 17.4242 29.4508C17.7758 29.8025 18.2527 30 18.75 30H28.125C28.6223 30 29.0992 29.8025 29.4508 29.4508C29.8025 29.0992 30 28.6223 30 28.125V22.5C30 22.0027 29.8025 21.5258 29.4508 21.1742C29.0992 20.8225 28.6223 20.625 28.125 20.625H18.75ZM11.25 15V28.125H1.875V15H11.25ZM1.875 13.125C1.37772 13.125 0.900806 13.3225 0.549175 13.6742C0.197544 14.0258 0 14.5027 0 15L0 28.125C0 28.6223 0.197544 29.0992 0.549175 29.4508C0.900806 29.8025 1.37772 30 1.875 30H11.25C11.7473 30 12.2242 29.8025 12.5758 29.4508C12.9275 29.0992 13.125 28.6223 13.125 28.125V15C13.125 14.5027 12.9275 14.0258 12.5758 13.6742C12.2242 13.3225 11.7473 13.125 11.25 13.125H1.875ZM28.125 1.875V15H18.75V1.875H28.125ZM18.75 0C18.2527 0 17.7758 0.197544 17.4242 0.549175C17.0725 0.900806 16.875 1.37772 16.875 1.875V15C16.875 15.4973 17.0725 15.9742 17.4242 16.3258C17.7758 16.6775 18.2527 16.875 18.75 16.875H28.125C28.6223 16.875 29.0992 16.6775 29.4508 16.3258C29.8025 15.9742 30 15.4973 30 15V1.875C30 1.37772 29.8025 0.900806 29.4508 0.549175C29.0992 0.197544 28.6223 0 28.125 0L18.75 0Z" fill="white"/>
</svg>
