<?xml version="1.0" encoding="utf-8"?>
<!-- Generator: Adobe Illustrator 19.1.1, SVG Export Plug-In . SVG Version: 6.00 Build 0)  -->
<svg version="1.1" id="Слой_1" xmlns="http://www.w3.org/2000/svg" xmlns:xlink="http://www.w3.org/1999/xlink" x="0px" y="0px"
	 viewBox="0 0 223.5 121" style="enable-background:new 0 0 223.5 121;" xml:space="preserve">
<style type="text/css">
	.st0{fill:#FFFFFF;}
</style>
<g>
	<g id="XMLID_2_">
		<path id="XMLID_50_" class="st0" d="M110,63H67.2c-1.3,0-2.1,0.9-2.1,1.8v10.7c0,0.8,0.8,1.7,2.1,1.7H110c1.3,0,2.1-0.9,2.1-1.7
			V64.8C112.2,63.9,111.3,63,110,63z"/>
		<path id="XMLID_1_" class="st0" d="M217.9,67.7l-19.2-53.2c-1.7-4.7-5.3-8.1-10.5-8.1c-5,0-8.8,3.6-10.5,8.1l-16.8,45.3l-19-19.8
			l18.5-18.2c3.2-3.2,4.8-5.3,4.8-7.8c0-4.2-3.5-7-7.2-7c-2.7,0-4.6,1.6-5.7,2.7l-24,25.6V14.3c0-4.5-3.1-7.2-7.3-7.2
			c-4.4,0-7.3,3.2-7.3,7.2v11.4C110.2,15.5,100.4,8,88.9,8c-13.1,0-24.1,9.6-26,21.9C58.7,16.1,47.4,7.6,30.5,7.6H14.2
			c-4.4,0-7.5,3-7.5,7.5v54.7c0,5.6,4.5,7.3,7.7,7.3h17c19.9,0,33.1-13,33.4-33.2c4.1,9,13.3,15.3,24.1,15.3
			c11.5,0,21.3-7.3,24.8-17.4v28.9c0,4.3,3.1,7,7.3,7c4.4,0,7.3-3.2,7.3-7V45.8l25.3,27.4c2.7,2.9,4.6,4.6,7.4,4.6
			c0.1,0,0.2,0,0.2,0h3.5v0c3.9,0,6-2.2,7-5.2l2.9-9.1h27.2l2.9,9.2c1,2.9,3,5.1,7.1,5.1c3.6,0,6.7-2.6,6.7-6.5
			C218.7,70.7,218.5,69.3,217.9,67.7z M31.2,63.7h-9.9V21.1h8.9c13.5,0,19.3,9.1,19.3,21.6C49.6,54.4,43.9,63.7,31.2,63.7z M88.9,45
			c-6.3,0-11.3-4.8-11.3-11.3c0-6.4,5.1-11.5,11.3-11.5c6.3,0,11.2,5.1,11.2,11.5C100.1,40.3,95.2,45,88.9,45z M178.9,50l9.3-28.3
			h0.2l9.1,28.3H178.9z"/>
		<path id="XMLID_56_" class="st0" d="M28.4,80.9H7.8c-0.6,0-1,0.4-1,0.8v30.9c0,0.4,0.4,0.8,1,0.8h5.2c0.6,0,1-0.4,1-0.8v-12.1
			h11.9c0.6,0,0.9-0.4,0.9-0.8v-5c0-0.4-0.4-0.8-0.9-0.8H13.9v-6.2h14.5c0.6,0,1-0.4,1-0.8v-5.1C29.4,81.3,29,80.9,28.4,80.9z"/>
		<path id="XMLID_57_" class="st0" d="M51.3,106.7H40.8V81.7c0-0.4-0.4-0.8-1-0.8h-5.2c-0.6,0-1,0.4-1,0.8v30.9c0,0.4,0.4,0.8,1,0.8
			h16.7c0.6,0,1-0.4,1-0.8v-5.2C52.3,107.1,51.9,106.7,51.3,106.7z"/>
		<path id="XMLID_58_" class="st0" d="M78.7,106.7H64.2v-6.2h11.9c0.6,0,0.9-0.4,0.9-0.8v-5c0-0.4-0.4-0.8-0.9-0.8H64.2v-6.2h14.1
			c0.6,0,1-0.4,1-0.8v-5c0-0.4-0.4-0.8-1-0.8H58.1c-0.6,0-1,0.4-1,0.8v30.9c0,0.4,0.4,0.8,1,0.8h20.6c0.6,0,1-0.4,1-0.8v-5.2
			C79.7,107.1,79.3,106.7,78.7,106.7z"/>
		<path id="XMLID_59_" class="st0" d="M111.1,80.9h-6.3c-0.1,0-0.7,0.1-0.8,0.3l-7.1,9.9l-7.1-9.9c-0.2-0.2-0.6-0.3-0.8-0.3h-6.3
			c-0.8,0-1.2,0.7-0.7,1.3h0l5.4,7.7c1.7,2.4,3.5,4.9,5.2,7.3l-10.6,15h0c-0.5,0.6-0.1,1.3,0.7,1.3H89c0.2,0,0.7-0.1,0.8-0.3
			l7.1-9.9l7.1,9.9c0.2,0.2,0.7,0.3,0.8,0.3h6.3c0.8,0,1.3-0.7,0.7-1.3h0c-1.5-2.1-3.1-4.4-4.6-6.5c-2-2.8-4.1-5.8-6.1-8.5l10.7-15
			h0C112.4,81.7,112,80.9,111.1,80.9z"/>
	</g>
</g>
</svg>
